<mxfile host="app.diagrams.net" modified="2023-06-18T12:29:04.369Z" agent="Mozilla/5.0 (Windows NT 10.0; Win64; x64) AppleWebKit/537.36 (KHTML, like Gecko) Chrome/114.0.0.0 Safari/537.36 Edg/114.0.1823.43" etag="oTi7C1CO3s3868C_KF9S" version="21.3.8" type="github">
  <diagram name="PÃ¡gina-1" id="4rgwo8C4xHDT4dJ-WRR3">
    <mxGraphModel dx="1236" dy="590" grid="1" gridSize="10" guides="1" tooltips="1" connect="1" arrows="1" fold="1" page="1" pageScale="1" pageWidth="827" pageHeight="1169" math="0" shadow="0">
      <root>
        <mxCell id="0" />
        <mxCell id="1" parent="0" />
      </root>
    </mxGraphModel>
  </diagram>
</mxfile>
